#!OML:ASF X:\für Bonn\!DataBase\2005_08_11_Bastian_Final\c3d\Bastian.ASF
:FULLY-SPECIFIED
:DEGREES
329
root 1.80567 1.77795 24.7586 -794.784 -167.356 -726.409
lowerback 75.2112 4.39248 5.74323
upperback 20.7126 -11.7581 -0.495279
thorax 2.91814 -14.1975 0.948308
lowerneck -17.5069 -3.14992 -3.23665
upperneck 1.25354 -3.15204 0.429328
head 3.59844 -1.40584 0.465953
rclavicle -1.07841e-014 -4.48259e-014
rhumerus -60.4728 17.44 -104.073
rradius 63.4692
rwrist -52.1195
rhand -38.0014 -21.595
rfingers 7.12502
rthumb -11.0406 -51.2846
lclavicle -1.07841e-014 -4.48259e-014
lhumerus 23.6486 -33.3817 13.5311
lradius 51.0578
lwrist 15.1873
lhand -3.19036 -15.5273
lfingers 7.12502
lthumb 22.5313 13.1781
rfemur -60.2456 -6.65542 15.0573
rtibia 92.4971
rfoot 12.6234 -4.26211
rtoes 0.306265
lfemur -77.6874 36.4151 -22.2363
ltibia 150.609
lfoot -2.86109 -26.6582
ltoes -30.465
330
root 1.80775 1.77723 24.7747 -794.904 -167.085 -726.341
lowerback 75.1833 4.2493 5.82051
upperback 20.7522 -11.8196 -0.516706
thorax 2.95787 -14.204 0.907018
lowerneck -17.7625 -3.20174 -3.42258
upperneck 1.48154 -3.17683 0.477864
head 3.73614 -1.42036 0.509618
rclavicle -4.01545e-014 8.94531e-015
rhumerus -60.7406 17.6777 -104.328
rradius 63.8432
rwrist -52.5337
rhand -38.0983 -21.7357
rfingers 7.12502
rthumb -11.134 -51.4203
lclavicle -4.01545e-014 8.94531e-015
lhumerus 23.9255 -33.9959 13.1956
lradius 50.8141
lwrist 15.2501
lhand -3.13324 -15.5313
lfingers 7.12502
lthumb 22.5861 13.1674
rfemur -60.0292 -6.73926 14.7498
rtibia 92.3873
rfoot 12.6406 -4.30601
rtoes 0.627919
lfemur -77.582 36.2695 -22.4343
ltibia 150.509
lfoot -2.89772 -26.6264
ltoes -30.1171
331
root 1.809 1.77421 24.7896 -795.016 -166.783 -726.259
lowerback 75.1121 4.08635 5.90404
upperback 20.8219 -11.8985 -0.565855
thorax 3.02265 -14.2131 0.832329
lowerneck -18.2106 -3.26582 -3.62034
upperneck 2.16904 -3.21288 0.658926
head 3.5887 -1.433 0.52701
rclavicle 2.22639e-014 -3.06128e-014
rhumerus -61.0092 17.9358 -104.643
rradius 64.2243
rwrist -52.945
rhand -38.1906 -21.8779
rfingers 7.12502
rthumb -11.2231 -51.5577
lclavicle 2.22639e-014 -3.06128e-014
lhumerus 24.2622 -34.6825 12.7182
lradius 50.5956
lwrist 15.375
lhand -3.13141 -15.5732
lfingers 7.12502
lthumb 22.5878 13.1253
rfemur -59.8537 -6.88423 14.422
rtibia 92.289
rfoot 12.7005 -4.32876
rtoes 0.988063
lfemur -77.4925 35.9466 -22.681
ltibia 150.405
lfoot -2.77892 -26.5063
ltoes -29.3229
332
root 1.81071 1.77071 24.8042 -795.145 -166.512 -726.19
lowerback 75.0598 3.9558 5.97127
upperback 20.8802 -11.9618 -0.58966
thorax 3.08194 -14.2248 0.787968
lowerneck -18.4651 -3.30774 -3.80947
upperneck 2.41282 -3.22738 0.770352
head 3.70768 -1.43907 0.585261
rclavicle -2.97183e-014 3.63776e-014
rhumerus -61.297 18.2167 -104.911
rradius 64.6292
rwrist -53.36
rhand -38.2313 -21.9665
rfingers 7.12502
rthumb -11.2623 -51.6441
lclavicle -2.97183e-014 3.63776e-014
lhumerus 24.5445 -35.3708 12.3189
lradius 50.3619
lwrist 15.4231
lhand -3.17591 -15.5931
lfingers 7.12502
lthumb 22.5451 13.1106
rfemur -59.6352 -6.97619 14.1157
rtibia 92.1694
rfoot 12.7845 -4.32677
rtoes 1.34148
lfemur -77.3871 35.755 -22.8885
ltibia 150.299
lfoot -2.70677 -26.4133
ltoes -28.7147
333
root 1.81242 1.76519 24.818 -795.285 -166.215 -726.11
lowerback 74.9853 3.81148 6.04403
upperback 20.9539 -12.0323 -0.634634
thorax 3.15206 -14.2342 0.717755
lowerneck -18.6749 -3.34084 -3.90867
upperneck 2.6461 -3.24886 0.826783
head 3.81466 -1.45131 0.612271
rclavicle -1.16786e-014 7.05686e-015
rhumerus -61.6213 18.4983 -105.229
rradius 65.0645
rwrist -53.8027
rhand -38.262 -22.0625
rfingers 7.12502
rthumb -11.2919 -51.7385
lclavicle -1.16786e-014 7.05686e-015
lhumerus 24.9027 -36.1258 11.8157
lradius 50.1201
lwrist 15.5293
lhand -3.24312 -15.6207
lfingers 7.12502
lthumb 22.4806 13.0908
rfemur -59.4327 -7.12537 13.8044
rtibia 92.0551
rfoot 12.9204 -4.2753
rtoes 1.4076
lfemur -77.2982 35.464 -23.1319
ltibia 150.184
lfoot -2.54838 -26.296
ltoes -28.1331
334
root 1.81339 1.75846 24.8314 -795.423 -165.934 -726.042
lowerback 74.8253 3.66656 6.12684
upperback 21.0807 -12.1091 -0.699753
thorax 3.27123 -14.2478 0.610977
lowerneck -18.7503 -3.37533 -4.09405
upperneck 2.75083 -3.26738 1.00721
head 3.86515 -1.45422 0.694276
rclavicle -3.23025e-015 -1.49089e-015
rhumerus -61.9266 18.7643 -105.53
rradius 65.5272
rwrist -54.2026
rhand -38.2879 -22.2141
rfingers 7.12502
rthumb -11.317 -51.8887
lclavicle -3.23025e-015 -1.49089e-015
lhumerus 25.2933 -36.9189 11.2317
lradius 49.9044
lwrist 15.6926
lhand -3.39923 -15.6401
lfingers 7.12502
lthumb 22.3308 13.0894
rfemur -59.2244 -7.25995 13.5041
rtibia 91.9211
rfoot 13.0669 -4.20516
rtoes 1.24745
lfemur -77.207 35.1274 -23.3421
ltibia 150.061
lfoot -2.27764 -26.1324
ltoes -27.2529
335
root 1.81507 1.75085 24.8431 -795.578 -165.66 -725.958
lowerback 74.6043 3.57843 6.16132
upperback 21.2236 -12.1545 -0.724274
thorax 3.41357 -14.2584 0.551248
lowerneck -18.6357 -3.39597 -4.21743
upperneck 2.7656 -3.28426 1.08665
head 3.85637 -1.46222 0.738056
rclavicle 2.07233e-014 -5.36719e-015
rhumerus -62.2716 19.0412 -105.79
rradius 66.006
rwrist -54.6534
rhand -38.3045 -22.2709
rfingers 7.12502
rthumb -11.3329 -51.9447
lclavicle 2.07233e-014 -5.36719e-015
lhumerus 25.6351 -37.7599 10.7072
lradius 49.7013
lwrist 15.7758
lhand -3.64072 -15.6076
lfingers 7.12502
lthumb 22.0989 13.1496
rfemur -59.002 -7.3939 13.214
rtibia 91.7944
rfoot 13.2238 -4.15821
rtoes 1.07641
lfemur -77.184 34.7824 -23.5837
ltibia 149.939
lfoot -1.90576 -25.9425
ltoes -26.459
336
root 1.81612 1.7424 24.8541 -795.782 -165.347 -725.853
lowerback 74.3882 3.52053 6.16677
upperback 21.3916 -12.2087 -0.739683
thorax 3.59117 -14.2878 0.507046
lowerneck -18.4968 -3.37389 -4.22119
upperneck 2.76993 -3.27231 1.13922
head 3.83761 -1.45674 0.757461
rclavicle 3.47873e-015 2.44505e-014
rhumerus -62.5893 19.3129 -106.054
rradius 66.4894
rwrist -55.0227
rhand -38.2689 -22.3986
rfingers 7.12502
rthumb -11.2987 -52.0742
lclavicle 3.47873e-015 2.44505e-014
lhumerus 26.0155 -38.6364 10.0932
lradius 49.5021
lwrist 15.965
lhand -3.90565 -15.5863
lfingers 7.12502
lthumb 21.8446 13.2008
rfemur -58.7272 -7.58749 12.8805
rtibia 91.6538
rfoot 13.3993 -4.06446
rtoes 0.951505
lfemur -77.0981 34.2589 -23.8259
ltibia 149.797
lfoot -1.43466 -25.6959
ltoes -25.4354
337
root 1.81653 1.73301 24.8635 -795.976 -165.06 -725.755
lowerback 74.1853 3.47331 6.16613
upperback 21.5371 -12.2448 -0.753411
thorax 3.74325 -14.3043 0.466975
lowerneck -18.3321 -3.35025 -4.2044
upperneck 2.74253 -3.26232 1.18224
head 3.80461 -1.45194 0.771006
rclavicle -3.77691e-014 -2.71341e-014
rhumerus -62.9216 19.5569 -106.292
rradius 66.9798
rwrist -55.3964
rhand -38.245 -22.5569
rfingers 7.12502
rthumb -11.2755 -52.2338
lclavicle -3.77691e-014 -2.71341e-014
lhumerus 26.4417 -39.5954 9.41046
lradius 49.3451
lwrist 16.2255
lhand -4.23965 -15.5646
lfingers 7.12502
lthumb 21.5238 13.2595
rfemur -58.4716 -7.76511 12.5748
rtibia 91.5168
rfoot 13.5798 -3.97329
rtoes 0.915051
lfemur -77.0584 33.8115 -24.0705
ltibia 149.656
lfoot -0.933173 -25.4332
ltoes -24.5448
338
root 1.81802 1.72327 24.8746 -796.144 -164.789 -725.658
lowerback 74.0161 3.43247 6.15692
upperback 21.662 -12.2804 -0.762801
thorax 3.87571 -14.3213 0.439839
lowerneck -18.2672 -3.30662 -4.11632
upperneck 2.77355 -3.23209 1.17347
head 3.80222 -1.43924 0.757389
rclavicle -8.86083e-014 5.38706e-014
rhumerus -63.2198 19.7699 -106.479
rradius 67.4964
rwrist -55.6967
rhand -38.1962 -22.7541
rfingers 7.12502
rthumb -11.2285 -52.4336
lclavicle -8.86083e-014 5.38706e-014
lhumerus 26.8668 -40.5685 8.71224
lradius 49.2244
lwrist 16.5938
lhand -4.58937 -15.4607
lfingers 7.12502
lthumb 21.1879 13.4014
rfemur -58.2351 -7.92618 12.2912
rtibia 91.3522
rfoot 13.8177 -3.86125
rtoes 1.10733
lfemur -77.0629 33.2939 -24.2978
ltibia 149.49
lfoot -0.246387 -25.1338
ltoes -23.1656
339
root 1.81871 1.71343 24.8857 -796.317 -164.572 -725.549
lowerback 73.852 3.38526 6.18546
upperback 21.7816 -12.2972 -0.759067
thorax 4.00368 -14.3285 0.406787
lowerneck -18.1996 -3.27148 -4.0211
upperneck 2.79328 -3.21355 1.16008
head 3.796 -1.43205 0.740321
rclavicle -1.2424e-015 6.89783e-014
rhumerus -63.5332 20.0079 -106.656
rradius 68.0442
rwrist -56.0222
rhand -38.2072 -22.8971
rfingers 7.12502
rthumb -11.2391 -52.576
lclavicle -1.2424e-015 6.89783e-014
lhumerus 27.3531 -41.6055 7.92413
lradius 49.1817
lwrist 16.9948
lhand -5.01466 -15.31
lfingers 7.12502
lthumb 20.7793 13.5974
rfemur -57.9938 -8.09535 12.0716
rtibia 91.1819
rfoot 14.0948 -3.75909
rtoes 1.61454
lfemur -77.0871 32.9272 -24.4803
ltibia 149.348
lfoot 0.395879 -24.8081
ltoes -21.8532
340
root 1.81989 1.70347 24.8981 -796.493 -164.381 -725.448
lowerback 73.7553 3.34093 6.21139
upperback 21.8633 -12.3129 -0.754343
thorax 4.09357 -14.335 0.385033
lowerneck -18.181 -3.22773 -3.92242
upperneck 2.85708 -3.18259 1.14293
head 3.81047 -1.41944 0.721711
rclavicle -7.85199e-015 2.64384e-014
rhumerus -63.8466 20.2457 -106.805
rradius 68.6307
rwrist -56.3651
rhand -38.1942 -23.146
rfingers 7.12502
rthumb -11.2266 -52.8256
lclavicle -7.85199e-015 2.64384e-014
lhumerus 27.8639 -42.7294 7.03848
lradius 49.1761
lwrist 17.5179
lhand -5.50077 -15.1621
lfingers 7.12502
lthumb 20.3122 13.7957
rfemur -57.7288 -8.21496 11.872
rtibia 90.9793
rfoot 14.4068 -3.67826
rtoes 2.07786
lfemur -77.1361 32.5742 -24.6272
ltibia 149.187
lfoot 1.1567 -24.4897
ltoes -20.4847
